<?xml version="1.0" encoding="UTF-8" standalone="no"?>
<!DOCTYPE svg PUBLIC "-//W3C//DTD SVG 1.1//EN" "http://www.w3.org/Graphics/SVG/1.1/DTD/svg11.dtd">
<svg xmlns="http://www.w3.org/2000/svg" version="1.1" viewBox="0.00 0.00 64.00 64.00">
<path fill="#9cd0fc" fill-opacity="0.996" d="
  M 61.9264 57.0422
  A 1.97 1.97 0.0 0 1 59.9530 59.0088
  L 4.0331 58.9112
  A 1.97 1.97 0.0 0 1 2.0665 56.9377
  L 2.1536 7.0578
  A 1.97 1.97 0.0 0 1 4.1270 5.0912
  L 60.0469 5.1888
  A 1.97 1.97 0.0 0 1 62.0135 7.1623
  L 61.9264 57.0422
  Z
  M 60.0971 7.9591
  A 1.04 1.04 0.0 0 0 59.0589 6.9173
  L 4.9190 6.8228
  A 1.04 1.04 0.0 0 0 3.8771 7.8609
  L 3.8629 16.0009
  A 1.04 1.04 0.0 0 0 4.9011 17.0427
  L 59.0410 17.1372
  A 1.04 1.04 0.0 0 0 60.0829 16.0991
  L 60.0971 7.9591
  Z
  M 60.0180 19.5611
  A 0.74 0.74 0.0 0 0 59.2767 18.8224
  L 4.6768 18.9177
  A 0.74 0.74 0.0 0 0 3.9381 19.6590
  L 4.0020 56.3189
  A 0.74 0.74 0.0 0 0 4.7433 57.0576
  L 59.3432 56.9623
  A 0.74 0.74 0.0 0 0 60.0819 56.2210
  L 60.0180 19.5611
  Z"
/>
<path fill="#9cd0fc" fill-opacity="0.996" d="
  M 36.9926 12.6270
  A 2.02 2.02 0.0 0 1 35.0590 14.7298
  L 33.2606 14.8052
  A 2.02 2.02 0.0 0 1 31.1577 12.8715
  L 31.0874 11.1930
  A 2.02 2.02 0.0 0 1 33.0210 9.0902
  L 34.8194 9.0148
  A 2.02 2.02 0.0 0 1 36.9223 10.9485
  L 36.9926 12.6270
  Z
  M 35.91 12.04
  A 1.95 1.95 0.0 0 0 33.96 10.09
  A 1.95 1.95 0.0 0 0 32.01 12.04
  A 1.95 1.95 0.0 0 0 33.96 13.99
  A 1.95 1.95 0.0 0 0 35.91 12.04
  Z"
/>
<path fill="#9cd0fc" fill-opacity="0.996" d="
  M 44.9953 12.5522
  A 2.14 2.14 0.0 0 1 42.9044 14.7402
  L 41.2249 14.7783
  A 2.14 2.14 0.0 0 1 39.0369 12.6874
  L 39.0047 11.2678
  A 2.14 2.14 0.0 0 1 41.0956 9.0798
  L 42.7751 9.0417
  A 2.14 2.14 0.0 0 1 44.9631 11.1326
  L 44.9953 12.5522
  Z
  M 42.0150 14.1390
  A 2.07 1.86 88.2 0 0 43.8091 12.0116
  A 2.07 1.86 88.2 0 0 41.8850 10.0010
  A 2.07 1.86 88.2 0 0 40.0909 12.1284
  A 2.07 1.86 88.2 0 0 42.0150 14.1390
  Z"
/>
<path fill="#9cd0fc" fill-opacity="0.996" d="
  M 52.9814 12.6480
  A 2.19 2.19 0.0 0 1 50.7349 14.7800
  L 49.1354 14.7381
  A 2.19 2.19 0.0 0 1 47.0035 12.4915
  L 47.0386 11.1520
  A 2.19 2.19 0.0 0 1 49.2851 9.0200
  L 50.8846 9.0619
  A 2.19 2.19 0.0 0 1 53.0165 11.3085
  L 52.9814 12.6480
  Z
  M 49.9237 14.1597
  A 2.08 1.85 91.0 0 0 51.8097 12.1123
  A 2.08 1.85 91.0 0 0 49.9963 10.0003
  A 2.08 1.85 91.0 0 0 48.1103 12.0477
  A 2.08 1.85 91.0 0 0 49.9237 14.1597
  Z"
/>
<rect fill="#9cd0fc" fill-opacity="0.996" x="-0.61" y="-7.69" transform="translate(32.14,38.49) rotate(20.4)" width="1.22" height="15.38" rx="0.58"/>
<path fill="#9cd0fc" fill-opacity="0.996" d="
  M 18.32 38.12
  A 0.33 0.33 0.0 0 0 18.30 38.72
  L 25.86 42.43
  Q 26.42 42.70 26.67 43.27
  Q 26.89 43.77 27.02 44.33
  Q 27.16 44.94 26.63 44.61
  Q 21.97 41.77 16.79 39.42
  Q 16.44 39.26 16.25 38.95
  A 0.76 0.75 -29.9 0 1 16.54 37.89
  L 26.73 32.47
  Q 27.22 32.20 27.06 32.74
  C 26.37 35.12 20.45 37.19 18.32 38.12
  Z"
/>
<path fill="#9cd0fc" fill-opacity="0.996" d="
  M 45.37 38.07
  Q 42.04 36.65 38.47 34.68
  Q 37.32 34.04 37.11 32.82
  Q 36.93 31.82 37.75 32.43
  C 40.82 34.71 44.02 35.86 47.26 37.75
  A 0.84 0.84 0.0 0 1 47.23 39.21
  L 37.36 44.44
  Q 36.77 44.75 36.99 44.12
  Q 37.39 42.96 38.57 42.33
  Q 42.06 40.48 45.39 38.92
  Q 46.31 38.48 45.37 38.07
  Z"
/>
</svg>
