<?xml version="1.0" encoding="UTF-8" standalone="no"?>
<!DOCTYPE svg PUBLIC "-//W3C//DTD SVG 1.1//EN" "http://www.w3.org/Graphics/SVG/1.1/DTD/svg11.dtd">
<svg xmlns="http://www.w3.org/2000/svg" version="1.1" viewBox="0.00 0.00 64.00 64.00">
<path fill="#a4dcf5" fill-opacity="0.996" d="
  M 25.05 14.16
  C 32.62 18.35 37.41 14.92 44.00 11.54
  Q 46.25 10.39 48.56 11.41
  C 52.69 13.22 56.96 13.52 58.68 18.53
  Q 62.00 28.18 62.87 34.60
  Q 63.74 40.94 61.57 47.74
  Q 60.60 50.79 57.50 51.68
  C 50.60 53.65 45.65 48.51 41.38 43.76
  C 36.53 38.36 27.93 38.27 22.89 43.41
  C 20.15 46.20 16.48 50.93 12.65 51.87
  C 9.12 52.75 4.25 52.17 2.68 48.30
  Q 1.48 45.30 1.28 42.16
  Q 0.48 29.57 6.39 16.69
  C 6.82 15.73 7.81 14.70 8.79 14.32
  Q 11.99 13.07 15.12 11.52
  C 18.44 9.89 22.25 12.61 25.05 14.16
  Z
  M 61.50 43.51
  Q 62.50 38.55 61.68 34.11
  Q 60.45 27.40 57.83 19.77
  Q 56.69 16.43 54.28 15.19
  Q 51.35 13.69 47.47 12.32
  A 3.17 3.14 42.7 0 0 45.17 12.40
  Q 42.20 13.69 39.31 15.32
  C 35.42 17.51 30.06 17.82 26.20 15.99
  Q 22.74 14.36 19.10 12.52
  A 3.55 3.53 45.6 0 0 15.99 12.48
  Q 13.03 13.88 9.86 15.17
  C 8.77 15.61 7.81 16.47 7.32 17.56
  Q 3.60 25.70 2.33 34.95
  Q 1.41 41.64 3.55 47.00
  C 5.74 52.47 12.39 52.21 16.17 48.47
  Q 19.84 44.84 23.39 41.29
  Q 25.74 38.94 28.98 38.94
  C 33.33 38.94 38.00 38.20 41.32 41.79
  C 44.42 45.13 48.49 49.89 52.96 50.78
  C 58.73 51.94 60.53 48.29 61.50 43.51
  Z"
/>
<path fill="#a4dcf5" fill-opacity="0.996" d="
  M 48.95 21.49
  A 2.46 2.46 0.0 0 1 46.49 23.95
  A 2.46 2.46 0.0 0 1 44.03 21.49
  A 2.46 2.46 0.0 0 1 46.49 19.03
  A 2.46 2.46 0.0 0 1 48.95 21.49
  Z
  M 48.19 21.52
  A 1.69 1.69 0.0 0 0 46.50 19.83
  A 1.69 1.69 0.0 0 0 44.81 21.52
  A 1.69 1.69 0.0 0 0 46.50 23.21
  A 1.69 1.69 0.0 0 0 48.19 21.52
  Z"
/>
<path fill="#a4dcf5" fill-opacity="0.996" d="
  M 20.07 24.93
  L 22.74 25.63
  A 1.41 1.41 0.0 0 1 22.75 28.35
  L 20.09 29.08
  A 1.41 1.41 0.0 0 0 19.10 30.08
  L 18.40 32.75
  A 1.41 1.41 0.0 0 1 15.68 32.76
  L 14.95 30.10
  A 1.41 1.41 0.0 0 0 13.95 29.11
  L 11.28 28.41
  A 1.41 1.41 0.0 0 1 11.27 25.69
  L 13.93 24.96
  A 1.41 1.41 0.0 0 0 14.92 23.96
  L 15.62 21.29
  A 1.41 1.41 0.0 0 1 18.34 21.28
  L 19.07 23.94
  A 1.41 1.41 0.0 0 0 20.07 24.93
  Z
  M 18.88 25.67
  A 0.74 0.74 0.0 0 1 18.26 25.05
  L 17.69 21.39
  A 0.74 0.74 0.0 0 0 16.23 21.40
  L 15.70 25.07
  A 0.74 0.74 0.0 0 1 15.08 25.69
  L 11.42 26.26
  A 0.74 0.74 0.0 0 0 11.43 27.72
  L 15.10 28.25
  A 0.74 0.74 0.0 0 1 15.72 28.87
  L 16.29 32.53
  A 0.74 0.74 0.0 0 0 17.75 32.52
  L 18.28 28.85
  A 0.74 0.74 0.0 0 1 18.90 28.23
  L 22.56 27.66
  A 0.74 0.74 0.0 0 0 22.55 26.20
  L 18.88 25.67
  Z"
/>
<path fill="#a4dcf5" fill-opacity="0.996" d="
  M 44.03 26.47
  A 2.50 2.50 0.0 0 1 41.53 28.97
  A 2.50 2.50 0.0 0 1 39.03 26.47
  A 2.50 2.50 0.0 0 1 41.53 23.97
  A 2.50 2.50 0.0 0 1 44.03 26.47
  Z
  M 43.20 26.51
  A 1.72 1.72 0.0 0 0 41.48 24.79
  A 1.72 1.72 0.0 0 0 39.76 26.51
  A 1.72 1.72 0.0 0 0 41.48 28.23
  A 1.72 1.72 0.0 0 0 43.20 26.51
  Z"
/>
<path fill="#a4dcf5" fill-opacity="0.996" d="
  M 53.93 26.52
  A 2.47 2.47 0.0 0 1 51.46 28.99
  A 2.47 2.47 0.0 0 1 48.99 26.52
  A 2.47 2.47 0.0 0 1 51.46 24.05
  A 2.47 2.47 0.0 0 1 53.93 26.52
  Z
  M 53.16 26.52
  A 1.71 1.71 0.0 0 0 51.45 24.81
  A 1.71 1.71 0.0 0 0 49.74 26.52
  A 1.71 1.71 0.0 0 0 51.45 28.23
  A 1.71 1.71 0.0 0 0 53.16 26.52
  Z"
/>
<path fill="#a4dcf5" fill-opacity="0.996" d="
  M 48.96 31.42
  A 2.50 2.50 0.0 0 1 46.46 33.92
  A 2.50 2.50 0.0 0 1 43.96 31.42
  A 2.50 2.50 0.0 0 1 46.46 28.92
  A 2.50 2.50 0.0 0 1 48.96 31.42
  Z
  M 48.25 31.48
  A 1.74 1.74 0.0 0 0 46.51 29.74
  A 1.74 1.74 0.0 0 0 44.77 31.48
  A 1.74 1.74 0.0 0 0 46.51 33.22
  A 1.74 1.74 0.0 0 0 48.25 31.48
  Z"
/>
</svg>
