<?xml version="1.0" encoding="UTF-8" standalone="no"?>
<!DOCTYPE svg PUBLIC "-//W3C//DTD SVG 1.1//EN" "http://www.w3.org/Graphics/SVG/1.1/DTD/svg11.dtd">
<svg xmlns="http://www.w3.org/2000/svg" version="1.1" viewBox="0.00 0.00 64.00 64.00">
<path fill="#9bdbfa" d="
  M 28.64 26.82
  C 29.18 24.27 29.79 19.98 27.52 17.96
  C 25.52 16.18 23.18 13.05 24.06 10.18
  C 25.66 5.00 31.04 1.29 36.14 4.76
  Q 41.18 8.20 39.90 13.56
  C 39.33 15.96 37.28 17.06 35.70 18.74
  A 2.12 2.09 -20.4 0 0 35.14 19.94
  Q 34.75 23.27 35.22 26.45
  Q 35.32 27.15 35.94 27.50
  Q 39.57 29.53 43.23 30.96
  C 47.31 32.56 51.14 34.59 55.02 36.52
  C 57.14 37.57 59.49 38.10 61.55 39.25
  Q 62.63 39.84 62.92 41.10
  C 63.72 44.59 62.92 46.65 59.61 47.99
  C 53.44 50.49 47.83 53.86 41.72 56.34
  Q 37.56 58.02 33.67 60.26
  A 3.42 3.41 45.1 0 1 30.27 60.25
  Q 25.98 57.75 21.72 55.99
  C 16.00 53.62 10.68 50.60 5.29 48.44
  C 1.44 46.89 -0.11 44.49 1.31 40.61
  Q 1.54 39.97 2.17 39.68
  L 27.95 27.68
  Q 28.51 27.42 28.64 26.82
  Z
  M 36.1493 6.4801
  A 5.73 5.73 0.0 0 0 28.0466 6.3670
  L 26.9999 7.3849
  A 5.73 5.73 0.0 0 0 26.8868 15.4875
  L 27.8907 16.5199
  A 5.73 5.73 0.0 0 0 35.9934 16.6330
  L 37.0401 15.6151
  A 5.73 5.73 0.0 0 0 37.1532 7.5125
  L 36.1493 6.4801
  Z
  M 33.76 19.49
  L 30.24 19.49
  A 0.25 0.25 0.0 0 0 29.99 19.74
  L 29.99 37.38
  A 1.99 1.60 90.0 0 0 31.59 39.37
  L 32.41 39.37
  A 1.99 1.60 -90.0 0 0 34.01 37.38
  L 34.01 19.74
  A 0.25 0.25 0.0 0 0 33.76 19.49
  Z
  M 60.21 41.13
  Q 60.49 41.16 60.72 41.00
  Q 61.08 40.75 60.68 40.56
  L 35.95 29.01
  A 0.62 0.62 0.0 0 0 35.07 29.55
  L 34.95 33.93
  Q 34.93 34.64 35.62 34.85
  C 39.21 35.93 41.88 36.85 44.37 40.00
  C 46.90 43.21 40.79 46.26 38.49 46.96
  Q 30.99 49.25 23.67 46.29
  C 21.36 45.35 17.28 42.10 20.08 39.33
  Q 23.05 36.38 27.79 34.96
  Q 28.86 34.63 28.93 33.51
  L 29.14 30.26
  Q 29.27 28.22 27.48 29.21
  Q 23.05 31.67 18.68 33.47
  C 13.80 35.46 9.46 37.73 4.88 40.00
  Q 3.63 40.61 4.83 41.31
  Q 10.61 44.63 15.54 46.62
  C 20.45 48.59 24.92 51.16 29.64 53.37
  Q 32.16 54.54 34.89 53.16
  C 37.93 51.61 40.93 49.93 44.04 48.63
  Q 51.94 45.33 59.40 41.29
  Q 59.78 41.08 60.21 41.13
  Z
  M 29.01 38.79
  L 29.10 36.71
  Q 29.13 35.99 28.46 36.25
  L 23.23 38.29
  Q 22.53 38.57 22.90 39.22
  Q 24.04 41.21 25.84 41.74
  C 28.49 42.54 31.03 43.37 33.91 42.86
  Q 37.56 42.20 40.47 40.85
  A 1.53 1.53 0.0 0 0 40.36 38.02
  L 35.16 36.11
  Q 34.71 35.94 34.71 36.43
  Q 34.71 37.45 35.04 38.40
  A 1.05 1.04 -15.9 0 1 34.28 39.76
  Q 31.74 40.33 29.64 39.69
  Q 28.97 39.48 29.01 38.79
  Z
  M 41.21 41.82
  Q 33.66 45.64 25.40 43.03
  C 23.82 42.53 23.03 41.38 21.94 40.28
  Q 21.15 39.50 20.98 40.60
  L 20.91 41.05
  A 2.73 2.70 30.6 0 0 21.45 43.11
  C 23.64 45.90 26.73 45.93 29.91 46.55
  Q 32.07 46.98 34.00 46.60
  C 36.72 46.07 44.25 45.15 42.87 40.50
  Q 42.57 39.49 42.19 40.48
  L 42.03 40.92
  Q 41.79 41.53 41.21 41.82
  Z
  M 1.91 43.67
  Q 2.30 45.17 3.67 45.88
  C 9.53 48.89 14.41 51.25 21.44 54.32
  Q 24.95 55.85 29.58 58.41
  Q 31.92 59.70 34.23 58.43
  Q 38.23 56.23 42.13 54.61
  C 48.33 52.03 54.14 48.87 60.15 46.02
  A 3.55 3.55 0.0 0 0 62.04 43.84
  Q 62.16 43.45 62.12 43.03
  Q 62.00 41.66 60.76 42.25
  L 33.21 55.33
  A 3.17 3.15 -43.2 0 1 30.36 55.25
  C 21.63 50.51 12.59 47.26 3.57 42.13
  Q 2.34 41.43 1.93 42.78
  Q 1.79 43.22 1.91 43.67
  Z"
/>
<path fill="#9bdbfa" d="
  M 17.0788 40.1483
  A 3.10 2.52 -6.7 0 1 14.2940 43.0128
  A 3.10 2.52 -6.7 0 1 10.9212 40.8717
  A 3.10 2.52 -6.7 0 1 13.7060 38.0072
  A 3.10 2.52 -6.7 0 1 17.0788 40.1483
  Z
  M 15.7273 40.4234
  A 1.73 1.48 -3.2 0 0 13.9174 39.0423
  A 1.73 1.48 -3.2 0 0 12.2727 40.6166
  A 1.73 1.48 -3.2 0 0 14.0826 41.9977
  A 1.73 1.48 -3.2 0 0 15.7273 40.4234
  Z"
/>
<path fill="#9bdbfa" d="
  M 53.0249 40.0287
  A 3.05 2.55 -8.7 0 1 50.3957 43.0107
  A 3.05 2.55 -8.7 0 1 46.9951 40.9513
  A 3.05 2.55 -8.7 0 1 49.6243 37.9693
  A 3.05 2.55 -8.7 0 1 53.0249 40.0287
  Z
  M 51.7170 40.3998
  A 1.69 1.53 -3.4 0 0 49.9393 38.9727
  A 1.69 1.53 -3.4 0 0 48.3430 40.6002
  A 1.69 1.53 -3.4 0 0 50.1207 42.0273
  A 1.69 1.53 -3.4 0 0 51.7170 40.3998
  Z"
/>
</svg>
