<?xml version="1.0" encoding="UTF-8" standalone="no"?>
<!DOCTYPE svg PUBLIC "-//W3C//DTD SVG 1.1//EN" "http://www.w3.org/Graphics/SVG/1.1/DTD/svg11.dtd">
<svg xmlns="http://www.w3.org/2000/svg" version="1.1" viewBox="0.00 0.00 64.00 64.00">
<path fill="#a3daf8" fill-opacity="0.996" d="
  M 35.08 41.66
  C 32.86 40.18 30.26 40.78 28.11 42.16
  Q 24.49 44.49 20.10 46.35
  C 14.00 48.93 10.15 45.12 6.48 40.94
  Q 1.60 35.40 3.26 27.86
  C 3.91 24.91 7.61 21.68 9.79 19.98
  Q 13.91 16.76 19.90 16.41
  Q 32.17 15.69 42.86 16.31
  C 49.76 16.71 53.62 18.56 58.35 23.78
  C 62.37 28.21 62.02 34.93 58.68 39.41
  C 55.08 44.26 50.42 49.12 43.74 46.31
  Q 39.18 44.40 35.08 41.66
  Z
  M 5.39 26.29
  C 2.55 30.14 4.02 35.74 6.89 39.25
  C 10.14 43.23 14.06 47.77 19.62 45.23
  Q 24.06 43.20 27.62 41.00
  C 30.13 39.44 33.98 39.35 36.60 41.04
  Q 40.49 43.56 44.68 45.39
  Q 48.20 46.92 51.02 45.06
  C 57.85 40.57 64.45 31.19 56.51 23.78
  Q 51.49 19.10 46.39 18.27
  Q 34.46 16.33 18.31 17.93
  C 12.68 18.49 8.69 21.82 5.39 26.29
  Z"
/>
<path fill="#a3daf8" fill-opacity="0.996" d="
  M 49.97 26.50
  A 2.47 2.47 0.0 0 1 47.50 28.97
  A 2.47 2.47 0.0 0 1 45.03 26.50
  A 2.47 2.47 0.0 0 1 47.50 24.03
  A 2.47 2.47 0.0 0 1 49.97 26.50
  Z
  M 48.0304 25.2958
  A 0.66 0.66 0.0 0 0 47.0977 25.2600
  L 46.3053 25.9938
  A 0.66 0.66 0.0 0 0 46.2694 26.9265
  L 46.9896 27.7042
  A 0.66 0.66 0.0 0 0 47.9223 27.7400
  L 48.7147 27.0062
  A 0.66 0.66 0.0 0 0 48.7506 26.0735
  L 48.0304 25.2958
  Z"
/>
<path fill="#a3daf8" fill-opacity="0.996" d="
  M 20.16 29.81
  L 23.81 30.72
  A 1.33 1.33 0.0 0 1 23.81 33.30
  L 20.16 34.21
  A 1.33 1.33 0.0 0 0 19.19 35.18
  L 18.28 38.83
  A 1.33 1.33 0.0 0 1 15.70 38.83
  L 14.79 35.18
  A 1.33 1.33 0.0 0 0 13.82 34.21
  L 10.17 33.30
  A 1.33 1.33 0.0 0 1 10.17 30.72
  L 13.82 29.81
  A 1.33 1.33 0.0 0 0 14.79 28.84
  L 15.70 25.19
  A 1.33 1.33 0.0 0 1 18.28 25.19
  L 19.19 28.84
  A 1.33 1.33 0.0 0 0 20.16 29.81
  Z
  M 18.87 30.72
  A 0.73 0.73 0.0 0 1 18.25 30.10
  L 17.72 26.34
  A 0.73 0.73 0.0 0 0 16.28 26.34
  L 15.75 30.10
  A 0.73 0.73 0.0 0 1 15.13 30.72
  L 11.37 31.25
  A 0.73 0.73 0.0 0 0 11.37 32.69
  L 15.13 33.22
  A 0.73 0.73 0.0 0 1 15.75 33.84
  L 16.28 37.60
  A 0.73 0.73 0.0 0 0 17.72 37.60
  L 18.25 33.84
  A 0.73 0.73 0.0 0 1 18.87 33.22
  L 22.63 32.69
  A 0.73 0.73 0.0 0 0 22.63 31.25
  L 18.87 30.72
  Z"
/>
<circle fill="#a3daf8" fill-opacity="0.996" cx="28.99" cy="28.02" r="0.97"/>
<circle fill="#a3daf8" fill-opacity="0.996" cx="34.98" cy="28.01" r="0.99"/>
<path fill="#a3daf8" fill-opacity="0.996" d="
  M 44.01 32.52
  A 2.48 2.48 0.0 0 1 41.53 35.00
  A 2.48 2.48 0.0 0 1 39.05 32.52
  A 2.48 2.48 0.0 0 1 41.53 30.04
  A 2.48 2.48 0.0 0 1 44.01 32.52
  Z
  M 42.7294 32.8877
  A 0.67 0.67 0.0 0 0 42.6897 31.9410
  L 41.9683 31.2777
  A 0.67 0.67 0.0 0 0 41.0216 31.3173
  L 40.2906 32.1123
  A 0.67 0.67 0.0 0 0 40.3303 33.0590
  L 41.0517 33.7223
  A 0.67 0.67 0.0 0 0 41.9984 33.6827
  L 42.7294 32.8877
  Z"
/>
<path fill="#a3daf8" fill-opacity="0.996" d="
  M 55.98 32.53
  A 2.47 2.47 0.0 0 1 53.51 35.00
  A 2.47 2.47 0.0 0 1 51.04 32.53
  A 2.47 2.47 0.0 0 1 53.51 30.06
  A 2.47 2.47 0.0 0 1 55.98 32.53
  Z
  M 54.0564 31.3731
  A 0.71 0.71 0.0 0 0 53.0539 31.3171
  L 52.3531 31.9436
  A 0.71 0.71 0.0 0 0 52.2971 32.9461
  L 52.9236 33.6469
  A 0.71 0.71 0.0 0 0 53.9261 33.7029
  L 54.6269 33.0764
  A 0.71 0.71 0.0 0 0 54.6829 32.0739
  L 54.0564 31.3731
  Z"
/>
<path fill="#a3daf8" fill-opacity="0.996" d="
  M 49.97 38.49
  A 2.46 2.46 0.0 0 1 47.51 40.95
  A 2.46 2.46 0.0 0 1 45.05 38.49
  A 2.46 2.46 0.0 0 1 47.51 36.03
  A 2.46 2.46 0.0 0 1 49.97 38.49
  Z
  M 48.79 38.50
  A 1.29 1.29 0.0 0 0 47.50 37.21
  A 1.29 1.29 0.0 0 0 46.21 38.50
  A 1.29 1.29 0.0 0 0 47.50 39.79
  A 1.29 1.29 0.0 0 0 48.79 38.50
  Z"
/>
</svg>
